<svg xmlns="http://www.w3.org/2000/svg" xmlns:xlink="http://www.w3.org/1999/xlink" stroke-miterlimit="10" stroke-linecap="square" stroke="none" fill="none" viewBox="434.6417445482866 87.63485477178423 614.0809968847352 850.4564315352696" version="1.1" style="max-height: 500px" width="614.0809968847352" height="850.4564315352696"><clipPath id="g2afa0162fc6_0_0.0"><path clip-rule="nonzero" d="m0 0l1920.0 0l0 960.0l-1920.0 0l0 -960.0z"/></clipPath><g clip-path="url(#g2afa0162fc6_0_0.0)"><path fill-rule="evenodd" d="m0 0l1920.0 0l0 960.0l-1920.0 0z" fill-opacity="0.0" fill="#000000"/><path fill-rule="evenodd" d="m735.86176 251.4565l0 0c0 -17.473068 14.164734 -31.637787 31.637756 -31.637787l0 0c8.390869 0 16.43811 3.333252 22.371338 9.266495c5.9332275 5.9332275 9.2664795 13.980423 9.2664795 22.371292l0 0c0 17.473068 -14.164734 31.637802 -31.637817 31.637802l0 0c-17.473022 0 -31.637756 -14.164734 -31.637756 -31.637802z" fill="#e06666"/><path fill-rule="evenodd" d="m735.86176 251.4565l0 0c0 -17.473068 14.164734 -31.637787 31.637756 -31.637787l0 0c8.390869 0 16.43811 3.333252 22.371338 9.266495c5.9332275 5.9332275 9.2664795 13.980423 9.2664795 22.371292l0 0c0 17.473068 -14.164734 31.637802 -31.637817 31.637802l0 0c-17.473022 0 -31.637756 -14.164734 -31.637756 -31.637802z" stroke-linecap="butt" stroke-linejoin="round" stroke-width="1.0" stroke="#595959"/><path fill-rule="evenodd" d="m735.86176 460.60385l0 0c0 -17.473053 14.164734 -31.637787 31.637756 -31.637787l0 0c8.390869 0 16.43811 3.333252 22.371338 9.26651c5.9332275 5.9332275 9.2664795 13.980438 9.2664795 22.371277l0 0c0 17.473083 -14.164734 31.637817 -31.637817 31.637817l0 0c-17.473022 0 -31.637756 -14.164734 -31.637756 -31.637817z" fill="#e06666"/><path fill-rule="evenodd" d="m735.86176 460.60385l0 0c0 -17.473053 14.164734 -31.637787 31.637756 -31.637787l0 0c8.390869 0 16.43811 3.333252 22.371338 9.26651c5.9332275 5.9332275 9.2664795 13.980438 9.2664795 22.371277l0 0c0 17.473083 -14.164734 31.637817 -31.637817 31.637817l0 0c-17.473022 0 -31.637756 -14.164734 -31.637756 -31.637817z" stroke-linecap="butt" stroke-linejoin="round" stroke-width="1.0" stroke="#595959"/><path fill-rule="evenodd" d="m735.86176 356.03018l0 0c0 -17.473083 14.164734 -31.637787 31.637756 -31.637787l0 0c8.390869 0 16.43811 3.333252 22.371338 9.2664795c5.9332275 5.933258 9.2664795 13.980438 9.2664795 22.371307l0 0c0 17.473083 -14.164734 31.637787 -31.637817 31.637787l0 0c-17.473022 0 -31.637756 -14.164703 -31.637756 -31.637787z" fill="#e06666"/><path fill-rule="evenodd" d="m735.86176 356.03018l0 0c0 -17.473083 14.164734 -31.637787 31.637756 -31.637787l0 0c8.390869 0 16.43811 3.333252 22.371338 9.2664795c5.9332275 5.933258 9.2664795 13.980438 9.2664795 22.371307l0 0c0 17.473083 -14.164734 31.637787 -31.637817 31.637787l0 0c-17.473022 0 -31.637756 -14.164703 -31.637756 -31.637787z" stroke-linecap="butt" stroke-linejoin="round" stroke-width="1.0" stroke="#595959"/><path fill-rule="evenodd" d="m960.7744 199.16966l0 0c0 -17.473083 14.164734 -31.637802 31.637756 -31.637802l0 0c8.390869 0 16.43811 3.333252 22.371338 9.266495c5.9332275 5.933243 9.266541 13.980438 9.266541 22.371307l0 0c0 17.473068 -14.164795 31.637787 -31.637878 31.637787l0 0c-17.473022 0 -31.637756 -14.164719 -31.637756 -31.637787z" fill="#6d9eeb"/><path fill-rule="evenodd" d="m960.7744 199.16966l0 0c0 -17.473083 14.164734 -31.637802 31.637756 -31.637802l0 0c8.390869 0 16.43811 3.333252 22.371338 9.266495c5.9332275 5.933243 9.266541 13.980438 9.266541 22.371307l0 0c0 17.473068 -14.164795 31.637787 -31.637878 31.637787l0 0c-17.473022 0 -31.637756 -14.164719 -31.637756 -31.637787z" stroke-linecap="butt" stroke-linejoin="round" stroke-width="1.0" stroke="#595959"/><path fill-rule="evenodd" d="m960.7744 408.31702l0 0c0 -17.473053 14.164734 -31.637787 31.637756 -31.637787l0 0c8.390869 0 16.43811 3.333252 22.371338 9.26651c5.9332275 5.9332275 9.266541 13.980408 9.266541 22.371277l0 0c0 17.473083 -14.164795 31.637817 -31.637878 31.637817l0 0c-17.473022 0 -31.637756 -14.164734 -31.637756 -31.637817z" fill="#6d9eeb"/><path fill-rule="evenodd" d="m960.7744 408.31702l0 0c0 -17.473053 14.164734 -31.637787 31.637756 -31.637787l0 0c8.390869 0 16.43811 3.333252 22.371338 9.26651c5.9332275 5.9332275 9.266541 13.980408 9.266541 22.371277l0 0c0 17.473083 -14.164795 31.637817 -31.637878 31.637817l0 0c-17.473022 0 -31.637756 -14.164734 -31.637756 -31.637817z" stroke-linecap="butt" stroke-linejoin="round" stroke-width="1.0" stroke="#595959"/><path fill-rule="evenodd" d="m960.7744 303.74335l0 0c0 -17.473083 14.164734 -31.637787 31.637756 -31.637787l0 0c8.390869 0 16.43811 3.333252 22.371338 9.2664795c5.9332275 5.9332275 9.266541 13.980438 9.266541 22.371307l0 0c0 17.473053 -14.164795 31.637787 -31.637878 31.637787l0 0c-17.473022 0 -31.637756 -14.164734 -31.637756 -31.637787z" fill="#6d9eeb"/><path fill-rule="evenodd" d="m960.7744 303.74335l0 0c0 -17.473083 14.164734 -31.637787 31.637756 -31.637787l0 0c8.390869 0 16.43811 3.333252 22.371338 9.2664795c5.9332275 5.9332275 9.266541 13.980438 9.266541 22.371307l0 0c0 17.473053 -14.164795 31.637787 -31.637878 31.637787l0 0c-17.473022 0 -31.637756 -14.164734 -31.637756 -31.637787z" stroke-linecap="butt" stroke-linejoin="round" stroke-width="1.0" stroke="#595959"/><path fill-rule="evenodd" d="m960.7744 512.8907l0 0c0 -17.473053 14.164734 -31.637787 31.637756 -31.637787l0 0c8.390869 0 16.43811 3.3332825 22.371338 9.26651c5.9332275 5.9332275 9.266541 13.980438 9.266541 22.371277l0 0c0 17.473083 -14.164795 31.637817 -31.637878 31.637817l0 0c-17.473022 0 -31.637756 -14.164734 -31.637756 -31.637817z" fill="#6d9eeb"/><path fill-rule="evenodd" d="m960.7744 512.8907l0 0c0 -17.473053 14.164734 -31.637787 31.637756 -31.637787l0 0c8.390869 0 16.43811 3.3332825 22.371338 9.26651c5.9332275 5.9332275 9.266541 13.980438 9.266541 22.371277l0 0c0 17.473083 -14.164795 31.637817 -31.637878 31.637817l0 0c-17.473022 0 -31.637756 -14.164734 -31.637756 -31.637817z" stroke-linecap="butt" stroke-linejoin="round" stroke-width="1.0" stroke="#595959"/><path fill-rule="evenodd" d="m799.1373 251.4565l161.63782 -52.283463" fill-opacity="0.0" fill="#000000"/><path fill-rule="evenodd" d="m799.1373 251.4565l161.63782 -52.283463" stroke-linecap="butt" stroke-linejoin="round" stroke-width="1.0" stroke="#595959"/><path fill-rule="evenodd" d="m799.1373 251.4565l161.63782 52.283463" fill-opacity="0.0" fill="#000000"/><path fill-rule="evenodd" d="m799.1373 251.4565l161.63782 52.283463" stroke-linecap="butt" stroke-linejoin="round" stroke-width="1.0" stroke="#595959"/><path fill-rule="evenodd" d="m799.1373 251.4565l161.63782 156.85039" fill-opacity="0.0" fill="#000000"/><path fill-rule="evenodd" d="m799.1373 251.4565l161.63782 156.85039" stroke-linecap="butt" stroke-linejoin="round" stroke-width="1.0" stroke="#595959"/><path fill-rule="evenodd" d="m799.1373 356.03018l161.63782 -52.283478" fill-opacity="0.0" fill="#000000"/><path fill-rule="evenodd" d="m799.1373 356.03018l161.63782 -52.283478" stroke-linecap="butt" stroke-linejoin="round" stroke-width="1.0" stroke="#595959"/><path fill-rule="evenodd" d="m799.1373 460.60385l161.63782 52.283478" fill-opacity="0.0" fill="#000000"/><path fill-rule="evenodd" d="m799.1373 460.60385l161.63782 52.283478" stroke-linecap="butt" stroke-linejoin="round" stroke-width="1.0" stroke="#595959"/><path fill-rule="evenodd" d="m662.1443 79.0105l210.70868 0l0 67.87402l-210.70868 0z" fill-opacity="0.0" fill="#000000"/><path fill-rule="nonzero" d="m698.7584 116.363625l3.796875 0.96875q-1.203125 4.65625 -4.296875 7.109375q-3.09375 2.453125 -7.5625 2.453125q-4.625 0 -7.53125 -1.875q-2.90625 -1.890625 -4.421875 -5.46875q-1.5 -3.578125 -1.5 -7.671875q0 -4.46875 1.703125 -7.796875q1.703125 -3.34375 4.859375 -5.0625q3.15625 -1.734375 6.953125 -1.734375q4.296875 0 7.21875 2.1875q2.9375 2.1875 4.078125 6.15625l-3.71875 0.875q-1.0 -3.125 -2.90625 -4.546875q-1.890625 -1.421875 -4.75 -1.421875q-3.3125 0 -5.53125 1.578125q-2.203125 1.578125 -3.109375 4.25q-0.890625 2.65625 -0.890625 5.5q0 3.640625 1.0625 6.375q1.0625 2.71875 3.296875 4.078125q2.25 1.34375 4.875 1.34375q3.1875 0 5.390625 -1.828125q2.203125 -1.84375 2.984375 -5.46875zm6.6992188 -0.328125q0 -5.765625 3.203125 -8.53125q2.671875 -2.3125 6.53125 -2.3125q4.265625 0 6.984375 2.8125q2.71875 2.796875 2.71875 7.734375q0 4.015625 -1.203125 6.3125q-1.203125 2.28125 -3.5 3.5625q-2.296875 1.265625 -5.0 1.265625q-4.359375 0 -7.046875 -2.796875q-2.6875 -2.796875 -2.6875 -8.046875zm3.609375 0q0 3.984375 1.734375 5.96875q1.75 1.984375 4.390625 1.984375q2.609375 0 4.34375 -1.984375q1.75 -2.0 1.75 -6.078125q0 -3.859375 -1.75 -5.828125q-1.75 -1.984375 -4.34375 -1.984375q-2.640625 0 -4.390625 1.96875q-1.734375 1.96875 -1.734375 5.953125zm19.949219 10.375l0 -20.75l3.15625 0l0 2.953125q2.296875 -3.421875 6.609375 -3.421875q1.875 0 3.4375 0.6875q1.578125 0.671875 2.359375 1.765625q0.78125 1.09375 1.09375 2.59375q0.203125 0.96875 0.203125 3.421875l0 12.75l-3.515625 0l0 -12.625q0 -2.140625 -0.421875 -3.203125q-0.40625 -1.0625 -1.453125 -1.703125q-1.046875 -0.640625 -2.453125 -0.640625q-2.234375 0 -3.875 1.4375q-1.625 1.421875 -1.625 5.40625l0 11.328125l-3.515625 0zm20.839844 -6.1875l3.46875 -0.546875q0.296875 2.078125 1.625 3.203125q1.34375 1.109375 3.75 1.109375q2.421875 0 3.59375 -0.984375q1.171875 -0.984375 1.171875 -2.3125q0 -1.203125 -1.03125 -1.875q-0.71875 -0.46875 -3.59375 -1.203125q-3.875 -0.96875 -5.375 -1.671875q-1.484375 -0.71875 -2.265625 -1.984375q-0.765625 -1.265625 -0.765625 -2.78125q0 -1.390625 0.640625 -2.5625q0.640625 -1.1875 1.734375 -1.96875q0.8125 -0.609375 2.21875 -1.03125q1.421875 -0.421875 3.046875 -0.421875q2.4375 0 4.28125 0.703125q1.859375 0.703125 2.734375 1.90625q0.875 1.203125 1.203125 3.21875l-3.4375 0.46875q-0.234375 -1.609375 -1.359375 -2.5q-1.109375 -0.90625 -3.171875 -0.90625q-2.421875 0 -3.453125 0.8125q-1.03125 0.796875 -1.03125 1.875q0 0.671875 0.421875 1.21875q0.4375 0.578125 1.359375 0.9375q0.515625 0.203125 3.09375 0.90625q3.734375 1.0 5.203125 1.640625q1.484375 0.625 2.3125 1.84375q0.84375 1.203125 0.84375 3.0q0 1.75 -1.03125 3.3125q-1.015625 1.546875 -2.953125 2.40625q-1.921875 0.84375 -4.375 0.84375q-4.03125 0 -6.15625 -1.671875q-2.125 -1.6875 -2.703125 -4.984375zm35.0 6.1875l0 -3.046875q-2.421875 3.515625 -6.578125 3.515625q-1.84375 0 -3.4375 -0.703125q-1.59375 -0.703125 -2.359375 -1.765625q-0.765625 -1.0625 -1.078125 -2.609375q-0.21875 -1.03125 -0.21875 -3.28125l0 -12.859375l3.515625 0l0 11.515625q0 2.75 0.21875 3.703125q0.328125 1.390625 1.390625 2.1875q1.078125 0.78125 2.671875 0.78125q1.578125 0 2.953125 -0.8125q1.390625 -0.8125 1.96875 -2.203125q0.578125 -1.390625 0.578125 -4.046875l0 -11.125l3.515625 0l0 20.75l-3.140625 0zm8.652344 0l0 -20.75l3.140625 0l0 2.921875q0.984375 -1.53125 2.59375 -2.453125q1.625 -0.9375 3.703125 -0.9375q2.296875 0 3.765625 0.96875q1.484375 0.953125 2.09375 2.671875q2.453125 -3.640625 6.40625 -3.640625q3.078125 0 4.734375 1.71875q1.671875 1.703125 1.671875 5.265625l0 14.234375l-3.5 0l0 -13.0625q0 -2.109375 -0.34375 -3.03125q-0.34375 -0.9375 -1.25 -1.5q-0.890625 -0.578125 -2.09375 -0.578125q-2.1875 0 -3.640625 1.46875q-1.4375 1.453125 -1.4375 4.65625l0 12.046875l-3.515625 0l0 -13.484375q0 -2.34375 -0.859375 -3.515625q-0.859375 -1.171875 -2.8125 -1.171875q-1.484375 0 -2.75 0.78125q-1.265625 0.78125 -1.828125 2.296875q-0.5625 1.5 -0.5625 4.328125l0 10.765625l-3.515625 0zm47.523438 -6.6875l3.625 0.453125q-0.859375 3.1875 -3.1875 4.953125q-2.3125 1.75 -5.9375 1.75q-4.546875 0 -7.21875 -2.796875q-2.65625 -2.8125 -2.65625 -7.875q0 -5.234375 2.6875 -8.125q2.703125 -2.890625 7.0 -2.890625q4.15625 0 6.796875 2.84375q2.640625 2.828125 2.640625 7.96875q0 0.3125 -0.03125 0.9375l-15.46875 0q0.203125 3.40625 1.9375 5.234375q1.734375 1.8125 4.34375 1.8125q1.921875 0 3.28125 -1.015625q1.375 -1.015625 2.1875 -3.25zm-11.546875 -5.671875l11.578125 0q-0.234375 -2.625 -1.328125 -3.9375q-1.671875 -2.03125 -4.359375 -2.03125q-2.421875 0 -4.078125 1.625q-1.640625 1.625 -1.8125 4.34375zm19.542969 12.359375l0 -20.75l3.171875 0l0 3.15625q1.203125 -2.21875 2.234375 -2.921875q1.03125 -0.703125 2.25 -0.703125q1.78125 0 3.625 1.140625l-1.21875 3.265625q-1.28125 -0.765625 -2.578125 -0.765625q-1.15625 0 -2.078125 0.703125q-0.90625 0.6875 -1.296875 1.90625q-0.59375 1.875 -0.59375 4.109375l0 10.859375l-3.515625 0z" fill="#000000"/><path fill-rule="evenodd" d="m906.1754 79.01048l172.47241 0l0 67.87401l-172.47241 0z" fill-opacity="0.0" fill="#000000"/><path fill-rule="nonzero" d="m955.48584 126.41048l0 -28.640625l10.796875 0q2.84375 0 4.359375 0.28125q2.109375 0.34375 3.53125 1.34375q1.421875 0.984375 2.28125 2.765625q0.875 1.765625 0.875 3.890625q0 3.65625 -2.328125 6.1875q-2.3125 2.53125 -8.390625 2.53125l-7.34375 0l0 11.640625l-3.78125 0zm3.78125 -15.015625l7.40625 0q3.671875 0 5.203125 -1.359375q1.546875 -1.375 1.546875 -3.859375q0 -1.796875 -0.90625 -3.078125q-0.90625 -1.28125 -2.390625 -1.6875q-0.953125 -0.25 -3.53125 -0.25l-7.328125 0l0 10.234375zm21.132812 4.640625q0 -5.765625 3.203125 -8.53125q2.671875 -2.3125 6.53125 -2.3125q4.265625 0 6.984375 2.8125q2.71875 2.796875 2.71875 7.734375q0 4.015625 -1.203125 6.3125q-1.203125 2.28125 -3.5 3.5625q-2.296875 1.265625 -5.0 1.265625q-4.359375 0 -7.046875 -2.796875q-2.6875 -2.796875 -2.6875 -8.046875zm3.609375 0q0 3.984375 1.734375 5.96875q1.75 1.984375 4.390625 1.984375q2.609375 0 4.34375 -1.984375q1.75 -2.0 1.75 -6.078125q0 -3.859375 -1.75 -5.828125q-1.75 -1.984375 -4.34375 -1.984375q-2.640625 0 -4.390625 1.96875q-1.734375 1.96875 -1.734375 5.953125zm18.542969 4.1875l3.46875 -0.546875q0.296875 2.078125 1.625 3.203125q1.34375 1.109375 3.75 1.109375q2.421875 0 3.59375 -0.984375q1.171875 -0.984375 1.171875 -2.3125q0 -1.203125 -1.03125 -1.875q-0.71875 -0.46875 -3.59375 -1.203125q-3.875 -0.96875 -5.375 -1.671875q-1.484375 -0.71875 -2.265625 -1.984375q-0.765625 -1.265625 -0.765625 -2.78125q0 -1.390625 0.640625 -2.5625q0.640625 -1.1875 1.734375 -1.96875q0.8125 -0.609375 2.21875 -1.03125q1.421875 -0.421875 3.046875 -0.421875q2.4375 0 4.28125 0.703125q1.859375 0.703125 2.734375 1.90625q0.875 1.203125 1.203125 3.21875l-3.4375 0.46875q-0.234375 -1.609375 -1.359375 -2.5q-1.109375 -0.90625 -3.171875 -0.90625q-2.421875 0 -3.453125 0.8125q-1.03125 0.796875 -1.03125 1.875q0 0.671875 0.421875 1.21875q0.4375 0.578125 1.359375 0.9375q0.515625 0.203125 3.09375 0.90625q3.734375 1.0 5.203125 1.640625q1.484375 0.625 2.3125 1.84375q0.84375 1.203125 0.84375 3.0q0 1.75 -1.03125 3.3125q-1.015625 1.546875 -2.953125 2.40625q-1.921875 0.84375 -4.375 0.84375q-4.03125 0 -6.15625 -1.671875q-2.125 -1.6875 -2.703125 -4.984375zm29.078125 3.046875l0.515625 3.09375q-1.484375 0.328125 -2.65625 0.328125q-1.921875 0 -2.984375 -0.609375q-1.046875 -0.609375 -1.484375 -1.59375q-0.421875 -0.984375 -0.421875 -4.15625l0 -11.9375l-2.578125 0l0 -2.734375l2.578125 0l0 -5.125l3.5 -2.109375l0 7.234375l3.53125 0l0 2.734375l-3.53125 0l0 12.140625q0 1.5 0.1875 1.9375q0.1875 0.421875 0.59375 0.671875q0.421875 0.25 1.203125 0.25q0.59375 0 1.546875 -0.125z" fill="#000000"/><path fill-rule="evenodd" d="m799.1373 460.60385l161.63782 -52.283447" fill-opacity="0.0" fill="#000000"/><path fill-rule="evenodd" d="m799.1373 460.60385l161.63782 -52.283447" stroke-linecap="butt" stroke-linejoin="round" stroke-width="1.0" stroke="#595959"/><path fill-rule="evenodd" d="m491.83023 375.70847l0 0c0 -17.473083 14.164734 -31.637787 31.637787 -31.637787l0 0c8.390869 0 16.43811 3.333252 22.371338 9.2664795c5.9332275 5.933258 9.2664795 13.980438 9.2664795 22.371307l0 0c0 17.473083 -14.164734 31.637787 -31.637817 31.637787l0 0c-17.473053 0 -31.637787 -14.164703 -31.637787 -31.637787z" fill="#e06666"/><path fill-rule="evenodd" d="m491.83023 375.70847l0 0c0 -17.473083 14.164734 -31.637787 31.637787 -31.637787l0 0c8.390869 0 16.43811 3.333252 22.371338 9.2664795c5.9332275 5.933258 9.2664795 13.980438 9.2664795 22.371307l0 0c0 17.473083 -14.164734 31.637787 -31.637817 31.637787l0 0c-17.473053 0 -31.637787 -14.164703 -31.637787 -31.637787z" stroke-linecap="butt" stroke-linejoin="round" stroke-width="1.0" stroke="#595959"/><path fill-rule="evenodd" d="m491.83023 480.28217l0 0c0 -17.473083 14.164734 -31.637817 31.637787 -31.637817l0 0c8.390869 0 16.43811 3.333252 22.371338 9.26651c5.9332275 5.9332275 9.2664795 13.980438 9.2664795 22.371307l0 0c0 17.473053 -14.164734 31.637787 -31.637817 31.637787l0 0c-17.473053 0 -31.637787 -14.164734 -31.637787 -31.637787z" fill="#e06666"/><path fill-rule="evenodd" d="m491.83023 480.28217l0 0c0 -17.473083 14.164734 -31.637817 31.637787 -31.637817l0 0c8.390869 0 16.43811 3.333252 22.371338 9.26651c5.9332275 5.9332275 9.2664795 13.980438 9.2664795 22.371307l0 0c0 17.473053 -14.164734 31.637787 -31.637817 31.637787l0 0c-17.473053 0 -31.637787 -14.164734 -31.637787 -31.637787z" stroke-linecap="butt" stroke-linejoin="round" stroke-width="1.0" stroke="#595959"/><path fill-rule="evenodd" d="m491.83023 637.1406l0 0c0 -17.473083 14.164734 -31.637817 31.637787 -31.637817l0 0c8.390869 0 16.43811 3.333252 22.371338 9.2664795c5.9332275 5.9332886 9.2664795 13.980469 9.2664795 22.371338l0 0c0 17.473083 -14.164734 31.637756 -31.637817 31.637756l0 0c-17.473053 0 -31.637787 -14.164673 -31.637787 -31.637756z" fill="#e06666"/><path fill-rule="evenodd" d="m491.83023 637.1406l0 0c0 -17.473083 14.164734 -31.637817 31.637787 -31.637817l0 0c8.390869 0 16.43811 3.333252 22.371338 9.2664795c5.9332275 5.9332886 9.2664795 13.980469 9.2664795 22.371338l0 0c0 17.473083 -14.164734 31.637756 -31.637817 31.637756l0 0c-17.473053 0 -31.637787 -14.164673 -31.637787 -31.637756z" stroke-linecap="butt" stroke-linejoin="round" stroke-width="1.0" stroke="#595959"/><path fill-rule="evenodd" d="m491.83023 738.4044l0 0c0 -17.473083 14.164734 -31.637817 31.637787 -31.637817l0 0c8.390869 0 16.43811 3.333252 22.371338 9.2664795c5.9332275 5.9332275 9.2664795 13.980469 9.2664795 22.371338l0 0c0 17.473022 -14.164734 31.637756 -31.637817 31.637756l0 0c-17.473053 0 -31.637787 -14.164734 -31.637787 -31.637756z" fill="#e06666"/><path fill-rule="evenodd" d="m491.83023 738.4044l0 0c0 -17.473083 14.164734 -31.637817 31.637787 -31.637817l0 0c8.390869 0 16.43811 3.333252 22.371338 9.2664795c5.9332275 5.9332275 9.2664795 13.980469 9.2664795 22.371338l0 0c0 17.473022 -14.164734 31.637756 -31.637817 31.637756l0 0c-17.473053 0 -31.637787 -14.164734 -31.637787 -31.637756z" stroke-linecap="butt" stroke-linejoin="round" stroke-width="1.0" stroke="#595959"/><path fill-rule="evenodd" d="m735.86176 899.28625l0 0c0 -17.473022 14.164734 -31.637756 31.637756 -31.637756l0 0c8.390869 0 16.43811 3.333252 22.371338 9.2664795c5.9332275 5.9332275 9.2664795 13.980408 9.2664795 22.371277l0 0c0 17.473083 -14.164734 31.637817 -31.637817 31.637817l0 0c-17.473022 0 -31.637756 -14.164734 -31.637756 -31.637817z" fill="#e06666"/><path fill-rule="evenodd" d="m735.86176 899.28625l0 0c0 -17.473022 14.164734 -31.637756 31.637756 -31.637756l0 0c8.390869 0 16.43811 3.333252 22.371338 9.2664795c5.9332275 5.9332275 9.2664795 13.980408 9.2664795 22.371277l0 0c0 17.473083 -14.164734 31.637817 -31.637817 31.637817l0 0c-17.473022 0 -31.637756 -14.164734 -31.637756 -31.637817z" stroke-linecap="butt" stroke-linejoin="round" stroke-width="1.0" stroke="#595959"/><path fill-rule="evenodd" d="m735.83813 791.4044l0 0c0 -17.473083 14.164734 -31.637817 31.637756 -31.637817l0 0c8.390869 0 16.43811 3.333252 22.371338 9.2664795c5.9332275 5.9332275 9.2664795 13.980469 9.2664795 22.371338l0 0c0 17.473022 -14.164734 31.637756 -31.637817 31.637756l0 0c-17.473022 0 -31.637756 -14.164734 -31.637756 -31.637756z" fill="#e06666"/><path fill-rule="evenodd" d="m735.83813 791.4044l0 0c0 -17.473083 14.164734 -31.637817 31.637756 -31.637817l0 0c8.390869 0 16.43811 3.333252 22.371338 9.2664795c5.9332275 5.9332275 9.2664795 13.980469 9.2664795 22.371338l0 0c0 17.473022 -14.164734 31.637756 -31.637817 31.637756l0 0c-17.473022 0 -31.637756 -14.164734 -31.637756 -31.637756z" stroke-linecap="butt" stroke-linejoin="round" stroke-width="1.0" stroke="#595959"/><path fill-rule="evenodd" d="m735.83813 683.5225l0 0c0 -17.473083 14.164734 -31.637817 31.637756 -31.637817l0 0c8.390869 0 16.43811 3.333252 22.371338 9.2664795c5.9332275 5.9332275 9.2664795 13.980469 9.2664795 22.371338l0 0c0 17.473022 -14.164734 31.637756 -31.637817 31.637756l0 0c-17.473022 0 -31.637756 -14.164734 -31.637756 -31.637756z" fill="#e06666"/><path fill-rule="evenodd" d="m735.83813 683.5225l0 0c0 -17.473083 14.164734 -31.637817 31.637756 -31.637817l0 0c8.390869 0 16.43811 3.333252 22.371338 9.2664795c5.9332275 5.9332275 9.2664795 13.980469 9.2664795 22.371338l0 0c0 17.473022 -14.164734 31.637756 -31.637817 31.637756l0 0c-17.473022 0 -31.637756 -14.164734 -31.637756 -31.637756z" stroke-linecap="butt" stroke-linejoin="round" stroke-width="1.0" stroke="#595959"/><path fill-rule="evenodd" d="m960.7744 683.52325l0 0c0 -17.473083 14.164734 -31.637817 31.637756 -31.637817l0 0c8.390869 0 16.43811 3.333252 22.371338 9.266541c5.9332275 5.9332275 9.266541 13.980408 9.266541 22.371277l0 0c0 17.473083 -14.164795 31.637817 -31.637878 31.637817l0 0c-17.473022 0 -31.637756 -14.164734 -31.637756 -31.637817z" fill="#6d9eeb"/><path fill-rule="evenodd" d="m960.7744 683.52325l0 0c0 -17.473083 14.164734 -31.637817 31.637756 -31.637817l0 0c8.390869 0 16.43811 3.333252 22.371338 9.266541c5.9332275 5.9332275 9.266541 13.980408 9.266541 22.371277l0 0c0 17.473083 -14.164795 31.637817 -31.637878 31.637817l0 0c-17.473022 0 -31.637756 -14.164734 -31.637756 -31.637817z" stroke-linecap="butt" stroke-linejoin="round" stroke-width="1.0" stroke="#595959"/><path fill-rule="evenodd" d="m960.7272 784.6046l0 0c0 -17.473083 14.164734 -31.637817 31.637756 -31.637817l0 0c8.390869 0 16.43811 3.333313 22.371338 9.266541c5.9332275 5.9332275 9.266541 13.980408 9.266541 22.371277l0 0c0 17.473083 -14.164795 31.637817 -31.637878 31.637817l0 0c-17.473022 0 -31.637756 -14.164734 -31.637756 -31.637817z" fill="#6d9eeb"/><path fill-rule="evenodd" d="m960.7272 784.6046l0 0c0 -17.473083 14.164734 -31.637817 31.637756 -31.637817l0 0c8.390869 0 16.43811 3.333313 22.371338 9.266541c5.9332275 5.9332275 9.266541 13.980408 9.266541 22.371277l0 0c0 17.473083 -14.164795 31.637817 -31.637878 31.637817l0 0c-17.473022 0 -31.637756 -14.164734 -31.637756 -31.637817z" stroke-linecap="butt" stroke-linejoin="round" stroke-width="1.0" stroke="#595959"/><path fill-rule="evenodd" d="m960.7744 885.686l0 0c0 -17.473083 14.164734 -31.637756 31.637756 -31.637756l0 0c8.390869 0 16.43811 3.333252 22.371338 9.2664795c5.9332275 5.9332275 9.266541 13.980408 9.266541 22.371277l0 0c0 17.473083 -14.164795 31.637817 -31.637878 31.637817l0 0c-17.473022 0 -31.637756 -14.164734 -31.637756 -31.637817z" fill="#6d9eeb"/><path fill-rule="evenodd" d="m960.7744 885.686l0 0c0 -17.473083 14.164734 -31.637756 31.637756 -31.637756l0 0c8.390869 0 16.43811 3.333252 22.371338 9.2664795c5.9332275 5.9332275 9.266541 13.980408 9.266541 22.371277l0 0c0 17.473083 -14.164795 31.637817 -31.637878 31.637817l0 0c-17.473022 0 -31.637756 -14.164734 -31.637756 -31.637817z" stroke-linecap="butt" stroke-linejoin="round" stroke-width="1.0" stroke="#595959"/><path fill-rule="evenodd" d="m555.10583 375.70847l180.75592 -124.25197" fill-opacity="0.0" fill="#000000"/><path fill-rule="evenodd" d="m555.10583 375.70847l180.75592 -124.25197" stroke-linecap="butt" stroke-linejoin="round" stroke-width="1.0" stroke="#595959"/><path fill-rule="evenodd" d="m555.10583 480.28217l180.75592 -228.81891" fill-opacity="0.0" fill="#000000"/><path fill-rule="evenodd" d="m555.10583 480.28217l180.75592 -228.81891" stroke-linecap="butt" stroke-linejoin="round" stroke-width="1.0" stroke="#595959"/><path fill-rule="evenodd" d="m555.10583 480.28217l180.75592 -124.25198" fill-opacity="0.0" fill="#000000"/><path fill-rule="evenodd" d="m555.10583 480.28217l180.75592 -124.25198" stroke-linecap="butt" stroke-linejoin="round" stroke-width="1.0" stroke="#595959"/><path fill-rule="evenodd" d="m555.10583 375.70847l180.75592 84.8819" fill-opacity="0.0" fill="#000000"/><path fill-rule="evenodd" d="m555.10583 375.70847l180.75592 84.8819" stroke-linecap="butt" stroke-linejoin="round" stroke-width="1.0" stroke="#595959"/><path fill-rule="evenodd" d="m555.10583 637.1406l180.72443 46.393677" fill-opacity="0.0" fill="#000000"/><path fill-rule="evenodd" d="m555.10583 637.1406l180.72443 46.393677" stroke-linecap="butt" stroke-linejoin="round" stroke-width="1.0" stroke="#595959"/><path fill-rule="evenodd" d="m555.10583 738.4044l180.72443 -54.897644" fill-opacity="0.0" fill="#000000"/><path fill-rule="evenodd" d="m555.10583 738.4044l180.72443 -54.897644" stroke-linecap="butt" stroke-linejoin="round" stroke-width="1.0" stroke="#595959"/><path fill-rule="evenodd" d="m555.10583 637.1406l180.72443 154.2677" fill-opacity="0.0" fill="#000000"/><path fill-rule="evenodd" d="m555.10583 637.1406l180.72443 154.2677" stroke-linecap="butt" stroke-linejoin="round" stroke-width="1.0" stroke="#595959"/><path fill-rule="evenodd" d="m555.10583 738.4044l180.72443 53.007874" fill-opacity="0.0" fill="#000000"/><path fill-rule="evenodd" d="m555.10583 738.4044l180.72443 53.007874" stroke-linecap="butt" stroke-linejoin="round" stroke-width="1.0" stroke="#595959"/><path fill-rule="evenodd" d="m555.10583 738.4044l180.75592 160.88184" fill-opacity="0.0" fill="#000000"/><path fill-rule="evenodd" d="m555.10583 738.4044l180.75592 160.88184" stroke-linecap="butt" stroke-linejoin="round" stroke-width="1.0" stroke="#595959"/><path fill-rule="evenodd" d="m799.1137 683.5225l161.66931 0" fill-opacity="0.0" fill="#000000"/><path fill-rule="evenodd" d="m799.1137 683.5225l161.66931 0" stroke-linecap="butt" stroke-linejoin="round" stroke-width="1.0" stroke="#595959"/><path fill-rule="evenodd" d="m799.1137 791.4044l161.66931 -107.87402" fill-opacity="0.0" fill="#000000"/><path fill-rule="evenodd" d="m799.1137 791.4044l161.66931 -107.87402" stroke-linecap="butt" stroke-linejoin="round" stroke-width="1.0" stroke="#595959"/><path fill-rule="evenodd" d="m799.1137 791.4044l161.60632 -6.8031616" fill-opacity="0.0" fill="#000000"/><path fill-rule="evenodd" d="m799.1137 791.4044l161.60632 -6.8031616" stroke-linecap="butt" stroke-linejoin="round" stroke-width="1.0" stroke="#595959"/><path fill-rule="evenodd" d="m799.1137 683.5225l161.60632 101.07086" fill-opacity="0.0" fill="#000000"/><path fill-rule="evenodd" d="m799.1137 683.5225l161.60632 101.07086" stroke-linecap="butt" stroke-linejoin="round" stroke-width="1.0" stroke="#595959"/><path fill-rule="evenodd" d="m799.1373 899.28625l161.57483 -114.677124" fill-opacity="0.0" fill="#000000"/><path fill-rule="evenodd" d="m799.1373 899.28625l161.57483 -114.677124" stroke-linecap="butt" stroke-linejoin="round" stroke-width="1.0" stroke="#595959"/><path fill-rule="evenodd" d="m799.1373 899.28625l161.63782 -13.606262" fill-opacity="0.0" fill="#000000"/><path fill-rule="evenodd" d="m799.1373 899.28625l161.63782 -13.606262" stroke-linecap="butt" stroke-linejoin="round" stroke-width="1.0" stroke="#595959"/><path fill-rule="evenodd" d="m418.1128 79.0105l210.70868 0l0 67.87402l-210.70868 0z" fill-opacity="0.0" fill="#000000"/><path fill-rule="nonzero" d="m445.40854 126.4105l0 -28.640625l10.796875 0q2.84375 0 4.359375 0.28125q2.109375 0.34375 3.53125 1.34375q1.421875 0.984375 2.28125 2.765625q0.875 1.765625 0.875 3.890625q0 3.65625 -2.328125 6.1875q-2.3125 2.53125 -8.390625 2.53125l-7.34375 0l0 11.640625l-3.78125 0zm3.78125 -15.015625l7.40625 0q3.671875 0 5.203125 -1.359375q1.546875 -1.375 1.546875 -3.859375q0 -1.796875 -0.90625 -3.078125q-0.90625 -1.28125 -2.390625 -1.6875q-0.953125 -0.25 -3.53125 -0.25l-7.328125 0l0 10.234375zm22.398438 15.015625l0 -20.75l3.171875 0l0 3.15625q1.203125 -2.21875 2.234375 -2.921875q1.03125 -0.703125 2.25 -0.703125q1.78125 0 3.625 1.140625l-1.21875 3.265625q-1.28125 -0.765625 -2.578125 -0.765625q-1.15625 0 -2.078125 0.703125q-0.90625 0.6875 -1.296875 1.90625q-0.59375 1.875 -0.59375 4.109375l0 10.859375l-3.515625 0zm12.0546875 -10.375q0 -5.765625 3.203125 -8.53125q2.671875 -2.3125 6.53125 -2.3125q4.265625 0 6.984375 2.8125q2.71875 2.796875 2.71875 7.734375q0 4.015625 -1.203125 6.3125q-1.203125 2.28125 -3.5 3.5625q-2.296875 1.265625 -5.0 1.265625q-4.359375 0 -7.046875 -2.796875q-2.6875 -2.796875 -2.6875 -8.046875zm3.609375 0q0 3.984375 1.734375 5.96875q1.75 1.984375 4.390625 1.984375q2.609375 0 4.34375 -1.984375q1.75 -2.0 1.75 -6.078125q0 -3.859375 -1.75 -5.828125q-1.75 -1.984375 -4.34375 -1.984375q-2.640625 0 -4.390625 1.96875q-1.734375 1.96875 -1.734375 5.953125zm33.402374 10.375l0 -2.625q-1.96875 3.09375 -5.796875 3.09375q-2.484375 0 -4.5625305 -1.359375q-2.078125 -1.375 -3.21875 -3.828125q-1.140625 -2.453125 -1.140625 -5.640625q0 -3.09375 1.03125 -5.625q1.03125 -2.53125 3.09375 -3.875q2.0781555 -1.359375 4.6406555 -1.359375q1.875 0 3.328125 0.796875q1.46875 0.796875 2.390625 2.0625l0 -10.28125l3.5 0l0 28.640625l-3.265625 0zm-11.1094055 -10.359375q0 3.984375 1.671875 5.96875q1.6875305 1.96875 3.9687805 1.96875q2.3125 0 3.921875 -1.875q1.609375 -1.890625 1.609375 -5.765625q0 -4.25 -1.640625 -6.234375q-1.640625 -2.0 -4.046875 -2.0q-2.34375 0 -3.9219055 1.921875q-1.5625 1.90625 -1.5625 6.015625zm33.496124 10.359375l0 -3.046875q-2.421875 3.515625 -6.578125 3.515625q-1.84375 0 -3.4375 -0.703125q-1.59375 -0.703125 -2.359375 -1.765625q-0.765625 -1.0625 -1.078125 -2.609375q-0.21875 -1.03125 -0.21875 -3.28125l0 -12.859375l3.515625 0l0 11.515625q0 2.75 0.21875 3.703125q0.328125 1.390625 1.390625 2.1875q1.078125 0.78125 2.671875 0.78125q1.578125 0 2.953125 -0.8125q1.390625 -0.8125 1.96875 -2.203125q0.578125 -1.390625 0.578125 -4.046875l0 -11.125l3.515625 0l0 20.75l-3.140625 0zm22.183594 -7.59375l3.453125 0.4375q-0.5625 3.578125 -2.90625 5.609375q-2.328125 2.015625 -5.71875 2.015625q-4.265625 0 -6.859375 -2.78125q-2.578125 -2.78125 -2.578125 -7.984375q0 -3.359375 1.109375 -5.875q1.125 -2.515625 3.390625 -3.78125q2.28125 -1.265625 4.953125 -1.265625q3.375 0 5.515625 1.71875q2.15625 1.703125 2.765625 4.84375l-3.421875 0.53125q-0.484375 -2.09375 -1.734375 -3.140625q-1.234375 -1.0625 -2.984375 -1.0625q-2.65625 0 -4.328125 1.90625q-1.65625 1.90625 -1.65625 6.03125q0 4.171875 1.59375 6.078125q1.609375 1.890625 4.1875 1.890625q2.078125 0 3.453125 -1.265625q1.390625 -1.28125 1.765625 -3.90625zm20.671875 0.90625l3.625 0.453125q-0.859375 3.1875 -3.1875 4.953125q-2.3125 1.75 -5.9375 1.75q-4.546875 0 -7.21875 -2.796875q-2.65625 -2.8125 -2.65625 -7.875q0 -5.234375 2.6875 -8.125q2.703125 -2.890625 7.0 -2.890625q4.15625 0 6.796875 2.84375q2.640625 2.828125 2.640625 7.96875q0 0.3125 -0.03125 0.9375l-15.46875 0q0.203125 3.40625 1.9375 5.234375q1.734375 1.8125 4.34375 1.8125q1.921875 0 3.28125 -1.015625q1.375 -1.015625 2.1875 -3.25zm-11.546875 -5.671875l11.578125 0q-0.234375 -2.625 -1.328125 -3.9375q-1.671875 -2.03125 -4.359375 -2.03125q-2.421875 0 -4.078125 1.625q-1.640625 1.625 -1.8125 4.34375zm19.542969 12.359375l0 -20.75l3.171875 0l0 3.15625q1.203125 -2.21875 2.234375 -2.921875q1.03125 -0.703125 2.25 -0.703125q1.78125 0 3.625 1.140625l-1.21875 3.265625q-1.28125 -0.765625 -2.578125 -0.765625q-1.15625 0 -2.078125 0.703125q-0.90625 0.6875 -1.296875 1.90625q-0.59375 1.875 -0.59375 4.109375l0 10.859375l-3.515625 0z" fill="#000000"/><path fill-rule="evenodd" d="m475.1522 508.95538l96.62991 0l0 67.87402l-96.62991 0z" fill-opacity="0.0" fill="#000000"/><path fill-rule="nonzero" d="m508.13904 556.3554l0 -4.0l4.0 0l0 4.0l-4.0 0zm13.34375 0l0 -4.0l4.0 0l0 4.0l-4.0 0zm13.3125 0l0 -4.0l4.03125 0l0 4.0l-4.03125 0z" fill="#000000"/><path fill-rule="evenodd" d="m717.9632 524.7743l96.629944 0l0 67.87402l-96.629944 0z" fill-opacity="0.0" fill="#000000"/><path fill-rule="nonzero" d="m750.9501 572.17426l0 -4.0l4.0 0l0 4.0l-4.0 0zm13.34375 0l0 -4.0l4.0 0l0 4.0l-4.0 0zm13.3125 0l0 -4.0l4.03125 0l0 4.0l-4.03125 0z" fill="#000000"/><path fill-rule="evenodd" d="m944.04987 548.4488l96.629944 0l0 67.87402l-96.629944 0z" fill-opacity="0.0" fill="#000000"/><path fill-rule="nonzero" d="m977.0367 595.8488l0 -4.0l4.0 0l0 4.0l-4.0 0zm13.34375 0l0 -4.0l4.0 0l0 4.0l-4.0 0zm13.3125 0l0 -4.0l4.03125 0l0 4.0l-4.03125 0z" fill="#000000"/></g></svg>